# xmcd
# Track frame offsets:
# 150
# 15934
# 30518
# 45286
# 59440
# 73703
# 88391
# 99981
# 118103
# 134680
#
# Disc length: 1986 seconds
# Revision: 0
# Processed by: cddbd v1.4PL0 Copyright (c) Steve Scherf et al.
# Submitted via: VisiTrax 2.9.5.181 - For more info visit www.synapsa.com
#
DISCID=8107c00a
DTITLE=Collin Raye - All I Can Be
DYEAR=1900
DGENRE=
TTITLE0=What They Don't Know
TTITLE1=In This Life
TTITLE2=Big River
TTITLE3=Somebody Else's Moon
TTITLE4=You Can't Take It With You
TTITLE5=That Was A River
TTITLE6=I Want You Bad (And That Ain't Good)
TTITLE7=Latter Day Cowboy
TTITLE8=Many A Mile
TTITLE9=Let It Be Me
EXTD=
EXTT0=
EXTT1=
EXTT2=
EXTT3=
EXTT4=
EXTT5=
EXTT6=
EXTT7=
EXTT8=
EXTT9=
PLAYORDER=
